<mxfile host="app.diagrams.net" modified="2023-08-08T12:10:48.400Z" agent="Mozilla/5.0 (X11; Ubuntu; Linux x86_64; rv:105.0) Gecko/20100101 Firefox/105.0" etag="UV2jNUaU2PUumUNblJNq" version="21.6.6" type="device">
  <diagram name="Page-1" id="aGrNsAUD6rLRG3-fpc4p">
    <mxGraphModel dx="1367" dy="751" grid="1" gridSize="10" guides="1" tooltips="1" connect="1" arrows="1" fold="1" page="1" pageScale="1" pageWidth="850" pageHeight="1100" math="0" shadow="0">
      <root>
        <mxCell id="0" />
        <mxCell id="1" parent="0" />
        <mxCell id="Dw3qF6tHwgRVVZFkppPR-167" value="" style="rounded=0;whiteSpace=wrap;html=1;fillColor=none;strokeWidth=3;" vertex="1" parent="1">
          <mxGeometry x="10" y="130" width="830" height="920" as="geometry" />
        </mxCell>
        <mxCell id="Dw3qF6tHwgRVVZFkppPR-85" value="" style="rounded=0;whiteSpace=wrap;html=1;strokeWidth=3;fillColor=#d5e8d4;strokeColor=default;" vertex="1" parent="1">
          <mxGeometry x="80" y="160" width="240" height="320" as="geometry" />
        </mxCell>
        <mxCell id="Dw3qF6tHwgRVVZFkppPR-86" value="&lt;font style=&quot;font-size: 24px;&quot;&gt;Size&lt;br&gt;&lt;/font&gt;" style="rounded=0;whiteSpace=wrap;html=1;strokeWidth=3;fillColor=#dae8fc;strokeColor=default;" vertex="1" parent="1">
          <mxGeometry x="80" y="160" width="240" height="50" as="geometry" />
        </mxCell>
        <mxCell id="Dw3qF6tHwgRVVZFkppPR-87" value="&lt;div&gt;&lt;font style=&quot;font-size: 24px;&quot;&gt;Size&lt;/font&gt;&lt;/div&gt;" style="rounded=0;whiteSpace=wrap;html=1;strokeWidth=3;strokeColor=default;fillColor=#dae8fc;" vertex="1" parent="1">
          <mxGeometry x="80" y="430" width="240" height="50" as="geometry" />
        </mxCell>
        <mxCell id="Dw3qF6tHwgRVVZFkppPR-88" value="&lt;div&gt;&lt;font style=&quot;font-size: 24px;&quot;&gt;Payload&lt;/font&gt;&lt;/div&gt;&lt;div&gt;&lt;font style=&quot;font-size: 24px;&quot;&gt;and &lt;br&gt;&lt;/font&gt;&lt;/div&gt;&lt;div&gt;&lt;font style=&quot;font-size: 24px;&quot;&gt;Padding&lt;br&gt;&lt;/font&gt;&lt;/div&gt;" style="text;html=1;strokeColor=none;fillColor=none;align=center;verticalAlign=middle;whiteSpace=wrap;rounded=0;" vertex="1" parent="1">
          <mxGeometry x="130" y="230" width="140" height="140" as="geometry" />
        </mxCell>
        <mxCell id="Dw3qF6tHwgRVVZFkppPR-89" value="" style="rounded=0;whiteSpace=wrap;html=1;strokeWidth=3;fillColor=#d5e8d4;strokeColor=default;" vertex="1" parent="1">
          <mxGeometry x="480" y="160" width="240" height="320" as="geometry" />
        </mxCell>
        <mxCell id="Dw3qF6tHwgRVVZFkppPR-90" value="&lt;font style=&quot;font-size: 24px;&quot;&gt;Size&lt;br&gt;&lt;/font&gt;" style="rounded=0;whiteSpace=wrap;html=1;strokeWidth=3;fillColor=#dae8fc;strokeColor=default;" vertex="1" parent="1">
          <mxGeometry x="480" y="160" width="240" height="50" as="geometry" />
        </mxCell>
        <mxCell id="Dw3qF6tHwgRVVZFkppPR-91" value="&lt;div&gt;&lt;font style=&quot;font-size: 24px;&quot;&gt;Size&lt;/font&gt;&lt;/div&gt;" style="rounded=0;whiteSpace=wrap;html=1;strokeWidth=3;strokeColor=default;fillColor=#dae8fc;" vertex="1" parent="1">
          <mxGeometry x="480" y="430" width="240" height="50" as="geometry" />
        </mxCell>
        <mxCell id="Dw3qF6tHwgRVVZFkppPR-92" value="&lt;font style=&quot;font-size: 24px;&quot;&gt;Next&lt;/font&gt;" style="text;html=1;strokeColor=default;fillColor=#dae8fc;align=center;verticalAlign=middle;whiteSpace=wrap;rounded=0;strokeWidth=3;" vertex="1" parent="1">
          <mxGeometry x="480" y="210" width="240" height="50" as="geometry" />
        </mxCell>
        <mxCell id="Dw3qF6tHwgRVVZFkppPR-93" value="&lt;font style=&quot;font-size: 24px;&quot;&gt;Prev&lt;/font&gt;" style="text;html=1;strokeColor=default;fillColor=#dae8fc;align=center;verticalAlign=middle;whiteSpace=wrap;rounded=0;strokeWidth=3;" vertex="1" parent="1">
          <mxGeometry x="480" y="260" width="240" height="50" as="geometry" />
        </mxCell>
        <mxCell id="Dw3qF6tHwgRVVZFkppPR-94" value="&lt;font style=&quot;font-size: 24px;&quot;&gt;(a) Structure of allocated chunk of memory&lt;br&gt;&lt;/font&gt;" style="text;html=1;strokeColor=none;fillColor=none;align=center;verticalAlign=middle;whiteSpace=wrap;rounded=0;" vertex="1" parent="1">
          <mxGeometry x="50" y="490" width="320" height="50" as="geometry" />
        </mxCell>
        <mxCell id="Dw3qF6tHwgRVVZFkppPR-95" value="&lt;div&gt;&lt;font style=&quot;font-size: 24px;&quot;&gt;(b) Structure of free chunk &lt;br&gt;&lt;/font&gt;&lt;/div&gt;&lt;div&gt;&lt;font style=&quot;font-size: 24px;&quot;&gt;of memory&lt;/font&gt;&lt;/div&gt;" style="text;html=1;strokeColor=none;fillColor=none;align=center;verticalAlign=middle;whiteSpace=wrap;rounded=0;" vertex="1" parent="1">
          <mxGeometry x="440" y="490" width="320" height="50" as="geometry" />
        </mxCell>
        <mxCell id="Dw3qF6tHwgRVVZFkppPR-96" value="" style="rounded=0;whiteSpace=wrap;html=1;strokeWidth=3;" vertex="1" parent="1">
          <mxGeometry x="40" y="841" width="780" height="60" as="geometry" />
        </mxCell>
        <mxCell id="Dw3qF6tHwgRVVZFkppPR-97" value="" style="rounded=0;whiteSpace=wrap;html=1;strokeWidth=3;fillColor=#ffe6cc;strokeColor=default;" vertex="1" parent="1">
          <mxGeometry x="40" y="841" width="60" height="60" as="geometry" />
        </mxCell>
        <mxCell id="Dw3qF6tHwgRVVZFkppPR-98" value="" style="rounded=0;whiteSpace=wrap;html=1;strokeWidth=3;fillColor=#ffe6cc;strokeColor=default;" vertex="1" parent="1">
          <mxGeometry x="100" y="841" width="60" height="60" as="geometry" />
        </mxCell>
        <mxCell id="Dw3qF6tHwgRVVZFkppPR-99" value="" style="rounded=0;whiteSpace=wrap;html=1;strokeWidth=3;fillColor=#ffe6cc;strokeColor=default;" vertex="1" parent="1">
          <mxGeometry x="160" y="841" width="60" height="60" as="geometry" />
        </mxCell>
        <mxCell id="Dw3qF6tHwgRVVZFkppPR-100" value="" style="rounded=0;whiteSpace=wrap;html=1;strokeWidth=3;fillColor=#ffe6cc;strokeColor=default;" vertex="1" parent="1">
          <mxGeometry x="220" y="841" width="60" height="60" as="geometry" />
        </mxCell>
        <mxCell id="Dw3qF6tHwgRVVZFkppPR-101" value="" style="rounded=0;whiteSpace=wrap;html=1;strokeWidth=3;fillColor=#e1d5e7;" vertex="1" parent="1">
          <mxGeometry x="280" y="841" width="60" height="60" as="geometry" />
        </mxCell>
        <mxCell id="Dw3qF6tHwgRVVZFkppPR-102" value="" style="rounded=0;whiteSpace=wrap;html=1;strokeWidth=3;fillColor=#e1d5e7;" vertex="1" parent="1">
          <mxGeometry x="340" y="841" width="60" height="60" as="geometry" />
        </mxCell>
        <mxCell id="Dw3qF6tHwgRVVZFkppPR-103" value="" style="rounded=0;whiteSpace=wrap;html=1;strokeWidth=3;fillColor=#e1d5e7;" vertex="1" parent="1">
          <mxGeometry x="400" y="841" width="60" height="60" as="geometry" />
        </mxCell>
        <mxCell id="Dw3qF6tHwgRVVZFkppPR-104" value="" style="rounded=0;whiteSpace=wrap;html=1;strokeWidth=3;fillColor=#e1d5e7;" vertex="1" parent="1">
          <mxGeometry x="460" y="841" width="60" height="60" as="geometry" />
        </mxCell>
        <mxCell id="Dw3qF6tHwgRVVZFkppPR-105" value="" style="rounded=0;whiteSpace=wrap;html=1;strokeWidth=3;fillColor=#ffe6cc;strokeColor=default;" vertex="1" parent="1">
          <mxGeometry x="520" y="841" width="60" height="60" as="geometry" />
        </mxCell>
        <mxCell id="Dw3qF6tHwgRVVZFkppPR-106" value="" style="rounded=0;whiteSpace=wrap;html=1;strokeWidth=3;fillColor=#ffe6cc;strokeColor=default;" vertex="1" parent="1">
          <mxGeometry x="580" y="841" width="60" height="60" as="geometry" />
        </mxCell>
        <mxCell id="Dw3qF6tHwgRVVZFkppPR-107" value="" style="rounded=0;whiteSpace=wrap;html=1;strokeWidth=3;fillColor=#ffe6cc;strokeColor=default;" vertex="1" parent="1">
          <mxGeometry x="640" y="841" width="60" height="60" as="geometry" />
        </mxCell>
        <mxCell id="Dw3qF6tHwgRVVZFkppPR-108" value="" style="rounded=0;whiteSpace=wrap;html=1;strokeWidth=3;fillColor=#ffe6cc;strokeColor=default;" vertex="1" parent="1">
          <mxGeometry x="700" y="841" width="60" height="60" as="geometry" />
        </mxCell>
        <mxCell id="Dw3qF6tHwgRVVZFkppPR-109" value="" style="rounded=0;whiteSpace=wrap;html=1;strokeWidth=3;fillColor=#ffe6cc;strokeColor=default;" vertex="1" parent="1">
          <mxGeometry x="760" y="841" width="60" height="60" as="geometry" />
        </mxCell>
        <mxCell id="Dw3qF6tHwgRVVZFkppPR-110" value="&lt;div&gt;&lt;font style=&quot;font-size: 18px;&quot;&gt;Size=4&lt;/font&gt;&lt;/div&gt;&lt;div&gt;&lt;font style=&quot;font-size: 18px;&quot;&gt;a=1&lt;br&gt;&lt;/font&gt;&lt;/div&gt;" style="text;html=1;strokeColor=none;fillColor=none;align=center;verticalAlign=middle;whiteSpace=wrap;rounded=0;" vertex="1" parent="1">
          <mxGeometry x="280" y="857" width="60" height="30" as="geometry" />
        </mxCell>
        <mxCell id="Dw3qF6tHwgRVVZFkppPR-111" value="&lt;font style=&quot;font-size: 18px;&quot;&gt;Size=4&lt;/font&gt;" style="text;html=1;strokeColor=none;fillColor=none;align=center;verticalAlign=middle;whiteSpace=wrap;rounded=0;" vertex="1" parent="1">
          <mxGeometry x="460" y="856" width="60" height="30" as="geometry" />
        </mxCell>
        <mxCell id="Dw3qF6tHwgRVVZFkppPR-112" value="&lt;div&gt;&lt;font style=&quot;font-size: 18px;&quot;&gt;Size=4&lt;/font&gt;&lt;/div&gt;&lt;div&gt;&lt;font style=&quot;font-size: 18px;&quot;&gt;a=0&lt;br&gt;&lt;/font&gt;&lt;/div&gt;" style="text;html=1;strokeColor=none;fillColor=none;align=center;verticalAlign=middle;whiteSpace=wrap;rounded=0;" vertex="1" parent="1">
          <mxGeometry x="40" y="856" width="60" height="30" as="geometry" />
        </mxCell>
        <mxCell id="Dw3qF6tHwgRVVZFkppPR-113" value="&lt;font style=&quot;font-size: 18px;&quot;&gt;Size=4&lt;/font&gt;" style="text;html=1;strokeColor=none;fillColor=none;align=center;verticalAlign=middle;whiteSpace=wrap;rounded=0;" vertex="1" parent="1">
          <mxGeometry x="220" y="856" width="60" height="30" as="geometry" />
        </mxCell>
        <mxCell id="Dw3qF6tHwgRVVZFkppPR-114" value="&lt;div&gt;&lt;font style=&quot;font-size: 18px;&quot;&gt;Size=5&lt;/font&gt;&lt;/div&gt;&lt;div&gt;&lt;font style=&quot;font-size: 18px;&quot;&gt;a=0&lt;br&gt;&lt;/font&gt;&lt;/div&gt;" style="text;html=1;strokeColor=none;fillColor=none;align=center;verticalAlign=middle;whiteSpace=wrap;rounded=0;" vertex="1" parent="1">
          <mxGeometry x="520" y="856" width="60" height="30" as="geometry" />
        </mxCell>
        <mxCell id="Dw3qF6tHwgRVVZFkppPR-115" value="&lt;font style=&quot;font-size: 18px;&quot;&gt;Size=5&lt;/font&gt;" style="text;html=1;strokeColor=none;fillColor=none;align=center;verticalAlign=middle;whiteSpace=wrap;rounded=0;" vertex="1" parent="1">
          <mxGeometry x="760" y="856" width="60" height="30" as="geometry" />
        </mxCell>
        <mxCell id="Dw3qF6tHwgRVVZFkppPR-116" value="&lt;font style=&quot;font-size: 18px;&quot;&gt;Next&lt;/font&gt;" style="text;html=1;strokeColor=none;fillColor=none;align=center;verticalAlign=middle;whiteSpace=wrap;rounded=0;" vertex="1" parent="1">
          <mxGeometry x="100" y="856" width="60" height="30" as="geometry" />
        </mxCell>
        <mxCell id="Dw3qF6tHwgRVVZFkppPR-117" value="&lt;font style=&quot;font-size: 18px;&quot;&gt;Prev&lt;/font&gt;" style="text;html=1;strokeColor=none;fillColor=none;align=center;verticalAlign=middle;whiteSpace=wrap;rounded=0;" vertex="1" parent="1">
          <mxGeometry x="160" y="856" width="60" height="30" as="geometry" />
        </mxCell>
        <mxCell id="Dw3qF6tHwgRVVZFkppPR-118" value="&lt;font style=&quot;font-size: 18px;&quot;&gt;Next&lt;/font&gt;" style="text;html=1;strokeColor=none;fillColor=none;align=center;verticalAlign=middle;whiteSpace=wrap;rounded=0;" vertex="1" parent="1">
          <mxGeometry x="580" y="856" width="60" height="30" as="geometry" />
        </mxCell>
        <mxCell id="Dw3qF6tHwgRVVZFkppPR-119" value="&lt;font style=&quot;font-size: 18px;&quot;&gt;Prev&lt;/font&gt;" style="text;html=1;strokeColor=none;fillColor=none;align=center;verticalAlign=middle;whiteSpace=wrap;rounded=0;" vertex="1" parent="1">
          <mxGeometry x="640" y="856" width="60" height="30" as="geometry" />
        </mxCell>
        <mxCell id="Dw3qF6tHwgRVVZFkppPR-120" value="" style="curved=1;endArrow=classic;html=1;rounded=0;exitX=0.633;exitY=-0.017;exitDx=0;exitDy=0;exitPerimeter=0;entryX=0.5;entryY=0;entryDx=0;entryDy=0;strokeWidth=3;" edge="1" parent="1">
          <mxGeometry width="50" height="50" relative="1" as="geometry">
            <mxPoint x="130.00000000000003" y="839.98" as="sourcePoint" />
            <mxPoint x="542.02" y="841" as="targetPoint" />
            <Array as="points">
              <mxPoint x="200" y="791" />
              <mxPoint x="440" y="781" />
            </Array>
          </mxGeometry>
        </mxCell>
        <mxCell id="Dw3qF6tHwgRVVZFkppPR-121" value="" style="curved=1;endArrow=classic;html=1;rounded=0;exitX=0.633;exitY=-0.017;exitDx=0;exitDy=0;exitPerimeter=0;strokeWidth=3;" edge="1" parent="1">
          <mxGeometry width="50" height="50" relative="1" as="geometry">
            <mxPoint x="600" y="839.98" as="sourcePoint" />
            <mxPoint x="830" y="812" as="targetPoint" />
            <Array as="points">
              <mxPoint x="640" y="801" />
              <mxPoint x="750" y="792" />
            </Array>
          </mxGeometry>
        </mxCell>
        <mxCell id="Dw3qF6tHwgRVVZFkppPR-122" value="" style="curved=1;endArrow=classic;html=1;rounded=0;exitX=0.5;exitY=1;exitDx=0;exitDy=0;strokeWidth=3;" edge="1" parent="1" source="Dw3qF6tHwgRVVZFkppPR-99">
          <mxGeometry width="50" height="50" relative="1" as="geometry">
            <mxPoint x="420" y="972" as="sourcePoint" />
            <mxPoint x="10" y="931" as="targetPoint" />
            <Array as="points">
              <mxPoint x="140" y="951" />
            </Array>
          </mxGeometry>
        </mxCell>
        <mxCell id="Dw3qF6tHwgRVVZFkppPR-126" value="" style="curved=1;endArrow=classic;html=1;rounded=0;exitX=0.5;exitY=1;exitDx=0;exitDy=0;strokeWidth=3;entryX=0.5;entryY=1;entryDx=0;entryDy=0;" edge="1" parent="1" target="Dw3qF6tHwgRVVZFkppPR-97">
          <mxGeometry width="50" height="50" relative="1" as="geometry">
            <mxPoint x="670" y="901" as="sourcePoint" />
            <mxPoint x="490" y="931" as="targetPoint" />
            <Array as="points">
              <mxPoint x="610" y="931" />
              <mxPoint x="250" y="961" />
            </Array>
          </mxGeometry>
        </mxCell>
        <mxCell id="Dw3qF6tHwgRVVZFkppPR-131" value="&lt;font style=&quot;font-size: 24px;&quot;&gt;(d) Internal details of the state of memory managed by mmalloc()/free() &lt;br&gt;&lt;/font&gt;" style="text;html=1;strokeColor=none;fillColor=none;align=center;verticalAlign=middle;whiteSpace=wrap;rounded=0;" vertex="1" parent="1">
          <mxGeometry x="145" y="980" width="570" height="50" as="geometry" />
        </mxCell>
        <mxCell id="Dw3qF6tHwgRVVZFkppPR-133" value="" style="rounded=0;whiteSpace=wrap;html=1;strokeWidth=3;" vertex="1" parent="1">
          <mxGeometry x="41" y="615" width="780" height="60" as="geometry" />
        </mxCell>
        <mxCell id="Dw3qF6tHwgRVVZFkppPR-137" value="" style="rounded=0;whiteSpace=wrap;html=1;strokeWidth=3;fillColor=#ffe6cc;strokeColor=default;" vertex="1" parent="1">
          <mxGeometry x="40" y="615" width="241" height="60" as="geometry" />
        </mxCell>
        <mxCell id="Dw3qF6tHwgRVVZFkppPR-138" value="" style="rounded=0;whiteSpace=wrap;html=1;strokeWidth=3;fillColor=#e1d5e7;" vertex="1" parent="1">
          <mxGeometry x="281" y="615" width="239" height="60" as="geometry" />
        </mxCell>
        <mxCell id="Dw3qF6tHwgRVVZFkppPR-142" value="" style="rounded=0;whiteSpace=wrap;html=1;strokeWidth=3;fillColor=#ffe6cc;strokeColor=default;" vertex="1" parent="1">
          <mxGeometry x="520" y="615" width="300" height="60" as="geometry" />
        </mxCell>
        <mxCell id="Dw3qF6tHwgRVVZFkppPR-161" value="&lt;font style=&quot;font-size: 18px;&quot;&gt;Free memory chunk&lt;/font&gt;" style="text;html=1;strokeColor=none;fillColor=none;align=center;verticalAlign=middle;whiteSpace=wrap;rounded=0;" vertex="1" parent="1">
          <mxGeometry x="71.5" y="630" width="178" height="30" as="geometry" />
        </mxCell>
        <mxCell id="Dw3qF6tHwgRVVZFkppPR-162" value="&lt;font style=&quot;font-size: 18px;&quot;&gt;Free memory chunk&lt;/font&gt;" style="text;html=1;strokeColor=none;fillColor=none;align=center;verticalAlign=middle;whiteSpace=wrap;rounded=0;" vertex="1" parent="1">
          <mxGeometry x="582" y="630" width="178" height="30" as="geometry" />
        </mxCell>
        <mxCell id="Dw3qF6tHwgRVVZFkppPR-163" value="&lt;font style=&quot;font-size: 18px;&quot;&gt;Allocated memory chunk&lt;/font&gt;" style="text;html=1;strokeColor=none;fillColor=none;align=center;verticalAlign=middle;whiteSpace=wrap;rounded=0;" vertex="1" parent="1">
          <mxGeometry x="295.75" y="630" width="209.5" height="30" as="geometry" />
        </mxCell>
        <mxCell id="Dw3qF6tHwgRVVZFkppPR-164" value="&lt;font style=&quot;font-size: 24px;&quot;&gt;(c) High level state of memory managed by mmalloc()/free() &lt;br&gt;&lt;/font&gt;" style="text;html=1;strokeColor=none;fillColor=none;align=center;verticalAlign=middle;whiteSpace=wrap;rounded=0;" vertex="1" parent="1">
          <mxGeometry x="140" y="690" width="570" height="50" as="geometry" />
        </mxCell>
        <mxCell id="Dw3qF6tHwgRVVZFkppPR-165" value="" style="endArrow=classic;html=1;rounded=0;entryX=1;entryY=1;entryDx=0;entryDy=0;strokeWidth=3;" edge="1" parent="1" target="Dw3qF6tHwgRVVZFkppPR-86">
          <mxGeometry width="50" height="50" relative="1" as="geometry">
            <mxPoint x="370" y="260" as="sourcePoint" />
            <mxPoint x="470" y="520" as="targetPoint" />
            <Array as="points">
              <mxPoint x="370" y="210" />
            </Array>
          </mxGeometry>
        </mxCell>
        <mxCell id="Dw3qF6tHwgRVVZFkppPR-166" value="&lt;div&gt;&lt;font style=&quot;font-size: 24px;&quot;&gt;Address &lt;br&gt;&lt;/font&gt;&lt;/div&gt;&lt;div&gt;&lt;font style=&quot;font-size: 24px;&quot;&gt;returned &lt;br&gt;&lt;/font&gt;&lt;/div&gt;&lt;div&gt;&lt;font style=&quot;font-size: 24px;&quot;&gt;by &lt;br&gt;&lt;/font&gt;&lt;/div&gt;&lt;div&gt;&lt;font style=&quot;font-size: 24px;&quot;&gt;mmalloc()&lt;br&gt;&lt;/font&gt;&lt;/div&gt;" style="text;html=1;strokeColor=none;fillColor=none;align=center;verticalAlign=middle;whiteSpace=wrap;rounded=0;" vertex="1" parent="1">
          <mxGeometry x="220" y="295" width="320" height="50" as="geometry" />
        </mxCell>
        <mxCell id="Dw3qF6tHwgRVVZFkppPR-169" value="&lt;font style=&quot;font-size: 24px;&quot;&gt;a&lt;/font&gt;&lt;font style=&quot;font-size: 24px;&quot;&gt;=0&lt;br&gt;&lt;/font&gt;" style="rounded=0;whiteSpace=wrap;html=1;fillColor=#dae8fc;strokeColor=default;strokeWidth=3;" vertex="1" parent="1">
          <mxGeometry x="670" y="160" width="50" height="50" as="geometry" />
        </mxCell>
        <mxCell id="Dw3qF6tHwgRVVZFkppPR-170" value="&lt;font style=&quot;font-size: 24px;&quot;&gt;a&lt;/font&gt;&lt;font style=&quot;font-size: 24px;&quot;&gt;=1&lt;br&gt;&lt;/font&gt;" style="rounded=0;whiteSpace=wrap;html=1;fillColor=#dae8fc;strokeColor=default;strokeWidth=3;" vertex="1" parent="1">
          <mxGeometry x="270" y="160" width="50" height="50" as="geometry" />
        </mxCell>
      </root>
    </mxGraphModel>
  </diagram>
</mxfile>
